<svg xmlns="http://www.w3.org/2000/svg" version="1.1" width="20" height="20" x="0" y="0" viewBox="0 0 511.996 511.996" style="enable-background:new 0 0 512 512" xml:space="preserve"><g><g xmlns="http://www.w3.org/2000/svg"><path d="m473.353 503.025-14.854-74.271v-316.258c0-4.143-3.358-7.5-7.5-7.5h-98.094v-6.545c0-53.77-43.308-97.935-96.542-98.451h-.729c-53.233.517-96.542 44.682-96.542 98.451v6.545h-98.094c-4.142 0-7.5 3.357-7.5 7.5v287c0 4.143 3.358 7.5 7.5 7.5s7.5-3.357 7.5-7.5v-279.5h90.594v67.5c0 12.406 10.093 22.5 22.5 22.5s22.5-10.094 22.5-22.5v-67.5h103.812v67.5c0 12.406 10.093 22.5 22.5 22.5s22.5-10.094 22.5-22.5v-67.5h90.594v302h-382.5c-3.575 0-6.653 2.523-7.354 6.029l-15 75c-.44 2.203.13 4.488 1.554 6.226 1.425 1.737 3.553 2.745 5.8 2.745h420c2.247 0 4.375-1.008 5.8-2.745s1.995-4.022 1.555-6.226zm-291.761-308.029c-4.136 0-7.5-3.364-7.5-7.5v-8.79c2.347.833 4.871 1.29 7.5 1.29s5.153-.458 7.5-1.29v8.79c0 4.136-3.364 7.5-7.5 7.5zm22.5-90v-6.545c0-29.171 23.278-53.134 51.906-53.453 28.627.319 51.906 24.282 51.906 53.453v6.545zm126.312 90c-4.136 0-7.5-3.364-7.5-7.5v-8.79c2.347.833 4.871 1.29 7.5 1.29s5.153-.458 7.5-1.29v8.79c0 4.136-3.364 7.5-7.5 7.5zm0-30c-4.136 0-7.5-3.364-7.5-7.5v-59.045c0-37.387-29.981-68.095-66.833-68.453h-.146c-36.852.358-66.833 31.066-66.833 68.453v59.045c0 4.136-3.364 7.5-7.5 7.5s-7.5-3.364-7.5-7.5v-59.045c0-45.578 36.645-83.015 81.614-83.451h.548c45.023.459 81.649 37.887 81.649 83.451v59.045c.001 4.136-3.363 7.5-7.499 7.5zm-275.258 332 12-60h377.704l12 60z" fill="#000000" data-original="#000000"></path></g></g></svg>